# xmcd
#
# Track frame offsets: 
#        150
#        20276
#        44273
#        66264
#        87145
#        106681
#        135656
#        161924
#        185800
#        211262
#        236890
#        261469
#
# Disc length: 3770 seconds
#
# Revision: 1
# Processed by: cddbd v1.5.2PL0 Copyright (c) Steve Scherf et al.
# Submitted via: ExactAudioCopy v1.0b3
#
DISCID=aa0eb80c
DTITLE=Nhu Quynh - La Giuong
DYEAR=2011
DGENRE=Pop
TTITLE0=Coi nho
TTITLE1=Vung la me bay
TTITLE2=Ton Nu con buon
TTITLE3=Hoa tim doi cho
TTITLE4=La giuong
TTITLE5=Nhu Quynh, Huynh Gia Tuan - LK May nhip cau tre, Cau tre ngay 
TTITLE5=xua
TTITLE6=Hue van con thuong
TTITLE7=Noi day to hong
TTITLE8=Nguoi tinh khong den
TTITLE9=Cay dang bo moi
TTITLE10=Nguoi da xa toi
TTITLE11=Nhu Quynh, Huynh Gia Tuan - Tim trong ky uc
EXTD=
EXTT0=
EXTT1=
EXTT2=
EXTT3=
EXTT4=
EXTT5=
EXTT6=
EXTT7=
EXTT8=
EXTT9=
EXTT10=
EXTT11=
PLAYORDER=
